<?xml version="1.0" encoding="iso-8859-1"?>
<!-- Generator: Adobe Illustrator 17.1.0, SVG Export Plug-In . SVG Version: 6.00 Build 0)  -->
<!DOCTYPE svg PUBLIC "-//W3C//DTD SVG 1.1//EN" "http://www.w3.org/Graphics/SVG/1.1/DTD/svg11.dtd">
<svg version="1.1" id="Capa_1" xmlns="http://www.w3.org/2000/svg" xmlns:xlink="http://www.w3.org/1999/xlink" x="0px" y="0px"
	 viewBox="0 0 512 512" style="enable-background:new 0 0 512 512;" xml:space="preserve">
<g>
	<path d="M360,380h-16c-4.418,0-8,3.582-8,8s3.582,8,8,8h16c4.418,0,8-3.582,8-8S364.418,380,360,380z"/>
	<path d="M509.224,295.044l-224-193.104c-1.55-1.336-3.465-1.965-5.362-1.931c-0.057-0.001-0.112-0.009-0.169-0.009H247.64
		c-0.006,0-0.012,0-0.018,0H224V76V44c0-4.418-3.582-8-8-8h-64c-3.236,0-6.153,1.949-7.391,4.938s-0.554,6.431,1.734,8.719
		L156.686,60l-10.343,10.343c-2.288,2.288-2.973,5.729-1.734,8.719S148.764,84,152,84h56v16h-24.36c-0.006,0-0.012,0-0.018,0
		h-31.989c-0.002,0-0.003,0-0.005,0h-31.935c-3.108,0-5.934,1.8-7.249,4.616c-1.314,2.815-0.879,6.138,1.116,8.521
		C133.189,136.574,144,166.002,144,196s-10.811,59.426-30.44,82.863c-1.996,2.383-2.431,5.705-1.116,8.521
		c1.315,2.816,4.141,4.616,7.249,4.616H208v56h-60.687l-21.657-21.657c-1.5-1.5-3.535-2.343-5.657-2.343H96V108c0-4.418-3.582-8-8-8
		s-8,3.582-8,8v45.705L1.216,279.76c-1.541,2.467-1.623,5.575-0.213,8.118C2.413,290.422,5.092,292,8,292h72v32H16
		c-8.822,0-16,7.178-16,16v48c0,4.418,3.582,8,8,8h9.441l14.714,73.569C32.903,473.309,36.187,476,40,476h264
		c43.713,0,85.241-24.623,120.093-71.208c22.155-29.612,34.884-58.846,38.394-67.454l45.843-29.508
		c2.122-1.365,3.475-3.651,3.65-6.169C512.156,299.145,511.135,296.691,509.224,295.044z M22.434,276L80,183.895V276H22.434z
		 M420.53,276l-45.105-75.175L462.628,276H420.53z M283.938,162.141c-1.044-4.293-5.368-6.926-9.665-5.882
		c-4.293,1.045-6.926,5.372-5.881,9.665c9.407,38.661,0.475,78.566-24.502,110.076h-12.252C247.436,252.213,256,224.344,256,196
		s-8.564-56.213-24.363-80h12.25c4.925,6.22,9.282,12.85,12.973,19.758c1.44,2.696,4.205,4.231,7.063,4.231
		c1.272,0,2.563-0.305,3.763-0.946c3.897-2.082,5.368-6.929,3.286-10.826c-2.229-4.173-4.683-8.25-7.325-12.217h12.243
		c18.154,22.948,28.11,51.21,28.11,80s-9.956,57.052-28.11,80h-12.228C286.15,242.34,293.558,201.677,283.938,162.141z
		 M219.938,162.141c-1.044-4.293-5.37-6.926-9.665-5.882c-4.293,1.045-6.926,5.372-5.881,9.665
		c9.407,38.661,0.475,78.566-24.502,110.076h-12.252C183.436,252.213,192,224.344,192,196s-8.564-56.213-24.363-80h12.25
		c4.925,6.22,9.282,12.85,12.973,19.758c1.44,2.696,4.205,4.231,7.063,4.231c1.272,0,2.563-0.305,3.763-0.946
		c3.897-2.082,5.368-6.929,3.286-10.826c-2.229-4.173-4.683-8.25-7.325-12.217h12.236C230.037,138.948,240,167.21,240,196
		s-9.963,57.052-28.118,80h-12.22C222.15,242.34,229.558,201.677,219.938,162.141z M173.657,54.343L171.314,52H208v16h-36.686
		l2.343-2.343C176.781,62.532,176.781,57.468,173.657,54.343z M160,196c0-28.343-8.561-56.214-24.358-80h12.24
		C166.037,138.948,176,167.21,176,196s-9.963,57.052-28.118,80h-12.24C151.439,252.214,160,224.343,160,196z M421.78,380H392
		c-4.418,0-8,3.582-8,8s3.582,8,8,8h18.581c-24.32,32.23-60.082,64-106.581,64H46.559l-12.8-64H312c4.418,0,8-3.582,8-8
		s-3.582-8-8-8H24h-8v-40h100.686l19.315,19.315c3.022,3.021,7.04,4.685,11.313,4.685h129.373c4.273,0,8.291-1.664,11.313-4.686
		L307.314,340H392h32h19.846C439.487,349.459,432.098,364.127,421.78,380z M453.648,324H424h-32h-88
		c-2.122,0-4.157,0.843-5.657,2.343L276.687,348H224v-56h55.692c2.367,0,4.613-1.049,6.133-2.863
		C307.863,262.824,320,229.748,320,196c0-17.514-3.276-34.845-9.501-51.146l26.351,22.716c0.092,0.183,0.184,0.367,0.291,0.546
		l72,120c0.023,0.039,0.052,0.071,0.076,0.109c0.14,0.224,0.29,0.44,0.45,0.648c0.043,0.056,0.082,0.114,0.126,0.168
		c0.191,0.234,0.395,0.457,0.61,0.668c0.075,0.073,0.154,0.14,0.231,0.21c0.155,0.14,0.313,0.275,0.479,0.403
		c0.089,0.068,0.177,0.136,0.269,0.201c0.199,0.141,0.405,0.273,0.617,0.396c0.05,0.029,0.098,0.062,0.149,0.09
		c0.272,0.15,0.554,0.282,0.844,0.399c0.056,0.023,0.113,0.041,0.169,0.062c0.236,0.09,0.477,0.169,0.724,0.237
		c0.08,0.022,0.159,0.042,0.24,0.062c0.231,0.056,0.465,0.1,0.703,0.135c0.081,0.012,0.161,0.027,0.243,0.037
		c0.294,0.034,0.592,0.055,0.895,0.057c0.015,0,0.03,0.003,0.045,0.003c0.005,0,0.01-0.001,0.015-0.001H480
		c0.371,0,0.734-0.034,1.091-0.083l9.576,8.255L453.648,324z"/>
	<path d="M120.02,412h-0.01c-4.418,0-7.995,3.582-7.995,8s3.586,8,8.005,8s8-3.582,8-8S124.438,412,120.02,412z"/>
	<path d="M152.02,412h-0.01c-4.418,0-7.995,3.582-7.995,8s3.586,8,8.005,8s8-3.582,8-8S156.438,412,152.02,412z"/>
	<path d="M184.02,412h-0.01c-4.418,0-7.995,3.582-7.995,8s3.586,8,8.005,8s8-3.582,8-8S188.438,412,184.02,412z"/>
	<path d="M216.02,412h-0.01c-4.418,0-7.995,3.582-7.995,8s3.586,8,8.005,8s8-3.582,8-8S220.438,412,216.02,412z"/>
	<path d="M248.02,412h-0.01c-4.418,0-7.995,3.582-7.995,8s3.586,8,8.005,8s8-3.582,8-8S252.438,412,248.02,412z"/>
	<path d="M280.02,412h-0.01c-4.418,0-7.995,3.582-7.995,8s3.586,8,8.005,8s8-3.582,8-8S284.438,412,280.02,412z"/>
	<path d="M312.02,412h-0.01c-4.418,0-7.995,3.582-7.995,8s3.586,8,8.005,8s8-3.582,8-8S316.438,412,312.02,412z"/>
</g>
<g>
</g>
<g>
</g>
<g>
</g>
<g>
</g>
<g>
</g>
<g>
</g>
<g>
</g>
<g>
</g>
<g>
</g>
<g>
</g>
<g>
</g>
<g>
</g>
<g>
</g>
<g>
</g>
<g>
</g>
</svg>
